<svg width="39" height="36" viewBox="0 0 39 36" fill="none" xmlns="http://www.w3.org/2000/svg">
<path d="M8.12 16.768C5.752 16.768 3.832 16.032 2.36 14.56C0.92 13.088 0.2 11.168 0.2 8.8V8.32C0.2 6.72 0.52 5.328 1.16 4.144C1.832 2.96 2.76 2.032 3.944 1.36C5.16 0.687999 6.552 0.351998 8.12 0.351998C9.688 0.351998 11.064 0.687999 12.248 1.36C13.432 2.032 14.36 2.96 15.032 4.144C15.704 5.328 16.04 6.72 16.04 8.32V8.8C16.04 11.168 15.304 13.088 13.832 14.56C12.392 16.032 10.488 16.768 8.12 16.768ZM8.12 12.448C8.984 12.448 9.672 12.16 10.184 11.584C10.696 11.008 10.952 10.064 10.952 8.752V8.32C10.952 7.04 10.696 6.112 10.184 5.536C9.672 4.96 8.984 4.672 8.12 4.672C7.256 4.672 6.568 4.96 6.056 5.536C5.544 6.112 5.288 7.04 5.288 8.32V8.752C5.288 10.064 5.544 11.008 6.056 11.584C6.568 12.16 7.256 12.448 8.12 12.448ZM4.76 34.48L27.8 0.879997H33.56L10.52 34.48H4.76ZM30.2 35.008C27.832 35.008 25.912 34.272 24.44 32.8C23 31.328 22.28 29.408 22.28 27.04V26.56C22.28 24.96 22.6 23.568 23.24 22.384C23.912 21.2 24.84 20.272 26.024 19.6C27.24 18.928 28.632 18.592 30.2 18.592C31.768 18.592 33.144 18.928 34.328 19.6C35.512 20.272 36.44 21.2 37.112 22.384C37.784 23.568 38.12 24.96 38.12 26.56V27.04C38.12 29.408 37.384 31.328 35.912 32.8C34.472 34.272 32.568 35.008 30.2 35.008ZM30.2 30.688C31.064 30.688 31.752 30.4 32.264 29.824C32.776 29.248 33.032 28.304 33.032 26.992V26.56C33.032 25.28 32.776 24.352 32.264 23.776C31.752 23.2 31.064 22.912 30.2 22.912C29.336 22.912 28.648 23.2 28.136 23.776C27.624 24.352 27.368 25.28 27.368 26.56V26.992C27.368 28.304 27.624 29.248 28.136 29.824C28.648 30.4 29.336 30.688 30.2 30.688Z" fill="white"/>
</svg>
